<?xml version="1.0" encoding="utf-8"?>
<svg xmlns="http://www.w3.org/2000/svg" xmlns:xlink="http://www.w3.org/1999/xlink" style="margin: auto; background: rgb(241, 242, 243); display: block; shape-rendering: auto;" width="197px" height="197px" viewBox="0 0 100 100" preserveAspectRatio="xMidYMid">
<g transform="rotate(0 50 50)">
  <rect x="37.5" y="19" rx="9" ry="6" width="25" height="12" fill="#ff0f0f">
    <animate attributeName="opacity" values="1;0" keyTimes="0;1" dur="1s" begin="-0.9861111111111112s" repeatCount="indefinite"></animate>
  </rect>
</g><g transform="rotate(5 50 50)">
  <rect x="37.5" y="19" rx="9" ry="6" width="25" height="12" fill="#ff0f0f">
    <animate attributeName="opacity" values="1;0" keyTimes="0;1" dur="1s" begin="-0.9722222222222222s" repeatCount="indefinite"></animate>
  </rect>
</g><g transform="rotate(10 50 50)">
  <rect x="37.5" y="19" rx="9" ry="6" width="25" height="12" fill="#ff0f0f">
    <animate attributeName="opacity" values="1;0" keyTimes="0;1" dur="1s" begin="-0.9583333333333334s" repeatCount="indefinite"></animate>
  </rect>
</g><g transform="rotate(15 50 50)">
  <rect x="37.5" y="19" rx="9" ry="6" width="25" height="12" fill="#ff0f0f">
    <animate attributeName="opacity" values="1;0" keyTimes="0;1" dur="1s" begin="-0.9444444444444444s" repeatCount="indefinite"></animate>
  </rect>
</g><g transform="rotate(20 50 50)">
  <rect x="37.5" y="19" rx="9" ry="6" width="25" height="12" fill="#ff0f0f">
    <animate attributeName="opacity" values="1;0" keyTimes="0;1" dur="1s" begin="-0.9305555555555556s" repeatCount="indefinite"></animate>
  </rect>
</g><g transform="rotate(25 50 50)">
  <rect x="37.5" y="19" rx="9" ry="6" width="25" height="12" fill="#ff0f0f">
    <animate attributeName="opacity" values="1;0" keyTimes="0;1" dur="1s" begin="-0.9166666666666666s" repeatCount="indefinite"></animate>
  </rect>
</g><g transform="rotate(30 50 50)">
  <rect x="37.5" y="19" rx="9" ry="6" width="25" height="12" fill="#ff0f0f">
    <animate attributeName="opacity" values="1;0" keyTimes="0;1" dur="1s" begin="-0.9027777777777778s" repeatCount="indefinite"></animate>
  </rect>
</g><g transform="rotate(35 50 50)">
  <rect x="37.5" y="19" rx="9" ry="6" width="25" height="12" fill="#ff0f0f">
    <animate attributeName="opacity" values="1;0" keyTimes="0;1" dur="1s" begin="-0.8888888888888888s" repeatCount="indefinite"></animate>
  </rect>
</g><g transform="rotate(40 50 50)">
  <rect x="37.5" y="19" rx="9" ry="6" width="25" height="12" fill="#ff0f0f">
    <animate attributeName="opacity" values="1;0" keyTimes="0;1" dur="1s" begin="-0.875s" repeatCount="indefinite"></animate>
  </rect>
</g><g transform="rotate(45 50 50)">
  <rect x="37.5" y="19" rx="9" ry="6" width="25" height="12" fill="#ff0f0f">
    <animate attributeName="opacity" values="1;0" keyTimes="0;1" dur="1s" begin="-0.8611111111111112s" repeatCount="indefinite"></animate>
  </rect>
</g><g transform="rotate(50 50 50)">
  <rect x="37.5" y="19" rx="9" ry="6" width="25" height="12" fill="#ff0f0f">
    <animate attributeName="opacity" values="1;0" keyTimes="0;1" dur="1s" begin="-0.8472222222222222s" repeatCount="indefinite"></animate>
  </rect>
</g><g transform="rotate(55 50 50)">
  <rect x="37.5" y="19" rx="9" ry="6" width="25" height="12" fill="#ff0f0f">
    <animate attributeName="opacity" values="1;0" keyTimes="0;1" dur="1s" begin="-0.8333333333333334s" repeatCount="indefinite"></animate>
  </rect>
</g><g transform="rotate(60 50 50)">
  <rect x="37.5" y="19" rx="9" ry="6" width="25" height="12" fill="#ff0f0f">
    <animate attributeName="opacity" values="1;0" keyTimes="0;1" dur="1s" begin="-0.8194444444444444s" repeatCount="indefinite"></animate>
  </rect>
</g><g transform="rotate(65 50 50)">
  <rect x="37.5" y="19" rx="9" ry="6" width="25" height="12" fill="#ff0f0f">
    <animate attributeName="opacity" values="1;0" keyTimes="0;1" dur="1s" begin="-0.8055555555555556s" repeatCount="indefinite"></animate>
  </rect>
</g><g transform="rotate(70 50 50)">
  <rect x="37.5" y="19" rx="9" ry="6" width="25" height="12" fill="#ff0f0f">
    <animate attributeName="opacity" values="1;0" keyTimes="0;1" dur="1s" begin="-0.7916666666666666s" repeatCount="indefinite"></animate>
  </rect>
</g><g transform="rotate(75 50 50)">
  <rect x="37.5" y="19" rx="9" ry="6" width="25" height="12" fill="#ff0f0f">
    <animate attributeName="opacity" values="1;0" keyTimes="0;1" dur="1s" begin="-0.7777777777777778s" repeatCount="indefinite"></animate>
  </rect>
</g><g transform="rotate(80 50 50)">
  <rect x="37.5" y="19" rx="9" ry="6" width="25" height="12" fill="#ff0f0f">
    <animate attributeName="opacity" values="1;0" keyTimes="0;1" dur="1s" begin="-0.7638888888888888s" repeatCount="indefinite"></animate>
  </rect>
</g><g transform="rotate(85 50 50)">
  <rect x="37.5" y="19" rx="9" ry="6" width="25" height="12" fill="#ff0f0f">
    <animate attributeName="opacity" values="1;0" keyTimes="0;1" dur="1s" begin="-0.75s" repeatCount="indefinite"></animate>
  </rect>
</g><g transform="rotate(90 50 50)">
  <rect x="37.5" y="19" rx="9" ry="6" width="25" height="12" fill="#ff0f0f">
    <animate attributeName="opacity" values="1;0" keyTimes="0;1" dur="1s" begin="-0.7361111111111112s" repeatCount="indefinite"></animate>
  </rect>
</g><g transform="rotate(95 50 50)">
  <rect x="37.5" y="19" rx="9" ry="6" width="25" height="12" fill="#ff0f0f">
    <animate attributeName="opacity" values="1;0" keyTimes="0;1" dur="1s" begin="-0.7222222222222222s" repeatCount="indefinite"></animate>
  </rect>
</g><g transform="rotate(100 50 50)">
  <rect x="37.5" y="19" rx="9" ry="6" width="25" height="12" fill="#ff0f0f">
    <animate attributeName="opacity" values="1;0" keyTimes="0;1" dur="1s" begin="-0.7083333333333334s" repeatCount="indefinite"></animate>
  </rect>
</g><g transform="rotate(105 50 50)">
  <rect x="37.5" y="19" rx="9" ry="6" width="25" height="12" fill="#ff0f0f">
    <animate attributeName="opacity" values="1;0" keyTimes="0;1" dur="1s" begin="-0.6944444444444444s" repeatCount="indefinite"></animate>
  </rect>
</g><g transform="rotate(110 50 50)">
  <rect x="37.5" y="19" rx="9" ry="6" width="25" height="12" fill="#ff0f0f">
    <animate attributeName="opacity" values="1;0" keyTimes="0;1" dur="1s" begin="-0.6805555555555556s" repeatCount="indefinite"></animate>
  </rect>
</g><g transform="rotate(115 50 50)">
  <rect x="37.5" y="19" rx="9" ry="6" width="25" height="12" fill="#ff0f0f">
    <animate attributeName="opacity" values="1;0" keyTimes="0;1" dur="1s" begin="-0.6666666666666666s" repeatCount="indefinite"></animate>
  </rect>
</g><g transform="rotate(120 50 50)">
  <rect x="37.5" y="19" rx="9" ry="6" width="25" height="12" fill="#ff0f0f">
    <animate attributeName="opacity" values="1;0" keyTimes="0;1" dur="1s" begin="-0.6527777777777778s" repeatCount="indefinite"></animate>
  </rect>
</g><g transform="rotate(125 50 50)">
  <rect x="37.5" y="19" rx="9" ry="6" width="25" height="12" fill="#ff0f0f">
    <animate attributeName="opacity" values="1;0" keyTimes="0;1" dur="1s" begin="-0.6388888888888888s" repeatCount="indefinite"></animate>
  </rect>
</g><g transform="rotate(130 50 50)">
  <rect x="37.5" y="19" rx="9" ry="6" width="25" height="12" fill="#ff0f0f">
    <animate attributeName="opacity" values="1;0" keyTimes="0;1" dur="1s" begin="-0.625s" repeatCount="indefinite"></animate>
  </rect>
</g><g transform="rotate(135 50 50)">
  <rect x="37.5" y="19" rx="9" ry="6" width="25" height="12" fill="#ff0f0f">
    <animate attributeName="opacity" values="1;0" keyTimes="0;1" dur="1s" begin="-0.6111111111111112s" repeatCount="indefinite"></animate>
  </rect>
</g><g transform="rotate(140 50 50)">
  <rect x="37.5" y="19" rx="9" ry="6" width="25" height="12" fill="#ff0f0f">
    <animate attributeName="opacity" values="1;0" keyTimes="0;1" dur="1s" begin="-0.5972222222222222s" repeatCount="indefinite"></animate>
  </rect>
</g><g transform="rotate(145 50 50)">
  <rect x="37.5" y="19" rx="9" ry="6" width="25" height="12" fill="#ff0f0f">
    <animate attributeName="opacity" values="1;0" keyTimes="0;1" dur="1s" begin="-0.5833333333333334s" repeatCount="indefinite"></animate>
  </rect>
</g><g transform="rotate(150 50 50)">
  <rect x="37.5" y="19" rx="9" ry="6" width="25" height="12" fill="#ff0f0f">
    <animate attributeName="opacity" values="1;0" keyTimes="0;1" dur="1s" begin="-0.5694444444444444s" repeatCount="indefinite"></animate>
  </rect>
</g><g transform="rotate(155 50 50)">
  <rect x="37.5" y="19" rx="9" ry="6" width="25" height="12" fill="#ff0f0f">
    <animate attributeName="opacity" values="1;0" keyTimes="0;1" dur="1s" begin="-0.5555555555555556s" repeatCount="indefinite"></animate>
  </rect>
</g><g transform="rotate(160 50 50)">
  <rect x="37.5" y="19" rx="9" ry="6" width="25" height="12" fill="#ff0f0f">
    <animate attributeName="opacity" values="1;0" keyTimes="0;1" dur="1s" begin="-0.5416666666666666s" repeatCount="indefinite"></animate>
  </rect>
</g><g transform="rotate(165 50 50)">
  <rect x="37.5" y="19" rx="9" ry="6" width="25" height="12" fill="#ff0f0f">
    <animate attributeName="opacity" values="1;0" keyTimes="0;1" dur="1s" begin="-0.5277777777777778s" repeatCount="indefinite"></animate>
  </rect>
</g><g transform="rotate(170 50 50)">
  <rect x="37.5" y="19" rx="9" ry="6" width="25" height="12" fill="#ff0f0f">
    <animate attributeName="opacity" values="1;0" keyTimes="0;1" dur="1s" begin="-0.5138888888888888s" repeatCount="indefinite"></animate>
  </rect>
</g><g transform="rotate(175 50 50)">
  <rect x="37.5" y="19" rx="9" ry="6" width="25" height="12" fill="#ff0f0f">
    <animate attributeName="opacity" values="1;0" keyTimes="0;1" dur="1s" begin="-0.5s" repeatCount="indefinite"></animate>
  </rect>
</g><g transform="rotate(180 50 50)">
  <rect x="37.5" y="19" rx="9" ry="6" width="25" height="12" fill="#ff0f0f">
    <animate attributeName="opacity" values="1;0" keyTimes="0;1" dur="1s" begin="-0.4861111111111111s" repeatCount="indefinite"></animate>
  </rect>
</g><g transform="rotate(185 50 50)">
  <rect x="37.5" y="19" rx="9" ry="6" width="25" height="12" fill="#ff0f0f">
    <animate attributeName="opacity" values="1;0" keyTimes="0;1" dur="1s" begin="-0.4722222222222222s" repeatCount="indefinite"></animate>
  </rect>
</g><g transform="rotate(190 50 50)">
  <rect x="37.5" y="19" rx="9" ry="6" width="25" height="12" fill="#ff0f0f">
    <animate attributeName="opacity" values="1;0" keyTimes="0;1" dur="1s" begin="-0.4583333333333333s" repeatCount="indefinite"></animate>
  </rect>
</g><g transform="rotate(195 50 50)">
  <rect x="37.5" y="19" rx="9" ry="6" width="25" height="12" fill="#ff0f0f">
    <animate attributeName="opacity" values="1;0" keyTimes="0;1" dur="1s" begin="-0.4444444444444444s" repeatCount="indefinite"></animate>
  </rect>
</g><g transform="rotate(200 50 50)">
  <rect x="37.5" y="19" rx="9" ry="6" width="25" height="12" fill="#ff0f0f">
    <animate attributeName="opacity" values="1;0" keyTimes="0;1" dur="1s" begin="-0.4305555555555556s" repeatCount="indefinite"></animate>
  </rect>
</g><g transform="rotate(205 50 50)">
  <rect x="37.5" y="19" rx="9" ry="6" width="25" height="12" fill="#ff0f0f">
    <animate attributeName="opacity" values="1;0" keyTimes="0;1" dur="1s" begin="-0.4166666666666667s" repeatCount="indefinite"></animate>
  </rect>
</g><g transform="rotate(210 50 50)">
  <rect x="37.5" y="19" rx="9" ry="6" width="25" height="12" fill="#ff0f0f">
    <animate attributeName="opacity" values="1;0" keyTimes="0;1" dur="1s" begin="-0.4027777777777778s" repeatCount="indefinite"></animate>
  </rect>
</g><g transform="rotate(215 50 50)">
  <rect x="37.5" y="19" rx="9" ry="6" width="25" height="12" fill="#ff0f0f">
    <animate attributeName="opacity" values="1;0" keyTimes="0;1" dur="1s" begin="-0.3888888888888889s" repeatCount="indefinite"></animate>
  </rect>
</g><g transform="rotate(220 50 50)">
  <rect x="37.5" y="19" rx="9" ry="6" width="25" height="12" fill="#ff0f0f">
    <animate attributeName="opacity" values="1;0" keyTimes="0;1" dur="1s" begin="-0.375s" repeatCount="indefinite"></animate>
  </rect>
</g><g transform="rotate(225 50 50)">
  <rect x="37.5" y="19" rx="9" ry="6" width="25" height="12" fill="#ff0f0f">
    <animate attributeName="opacity" values="1;0" keyTimes="0;1" dur="1s" begin="-0.3611111111111111s" repeatCount="indefinite"></animate>
  </rect>
</g><g transform="rotate(230 50 50)">
  <rect x="37.5" y="19" rx="9" ry="6" width="25" height="12" fill="#ff0f0f">
    <animate attributeName="opacity" values="1;0" keyTimes="0;1" dur="1s" begin="-0.3472222222222222s" repeatCount="indefinite"></animate>
  </rect>
</g><g transform="rotate(235 50 50)">
  <rect x="37.5" y="19" rx="9" ry="6" width="25" height="12" fill="#ff0f0f">
    <animate attributeName="opacity" values="1;0" keyTimes="0;1" dur="1s" begin="-0.3333333333333333s" repeatCount="indefinite"></animate>
  </rect>
</g><g transform="rotate(240 50 50)">
  <rect x="37.5" y="19" rx="9" ry="6" width="25" height="12" fill="#ff0f0f">
    <animate attributeName="opacity" values="1;0" keyTimes="0;1" dur="1s" begin="-0.3194444444444444s" repeatCount="indefinite"></animate>
  </rect>
</g><g transform="rotate(245 50 50)">
  <rect x="37.5" y="19" rx="9" ry="6" width="25" height="12" fill="#ff0f0f">
    <animate attributeName="opacity" values="1;0" keyTimes="0;1" dur="1s" begin="-0.3055555555555556s" repeatCount="indefinite"></animate>
  </rect>
</g><g transform="rotate(250 50 50)">
  <rect x="37.5" y="19" rx="9" ry="6" width="25" height="12" fill="#ff0f0f">
    <animate attributeName="opacity" values="1;0" keyTimes="0;1" dur="1s" begin="-0.2916666666666667s" repeatCount="indefinite"></animate>
  </rect>
</g><g transform="rotate(255 50 50)">
  <rect x="37.5" y="19" rx="9" ry="6" width="25" height="12" fill="#ff0f0f">
    <animate attributeName="opacity" values="1;0" keyTimes="0;1" dur="1s" begin="-0.2777777777777778s" repeatCount="indefinite"></animate>
  </rect>
</g><g transform="rotate(260 50 50)">
  <rect x="37.5" y="19" rx="9" ry="6" width="25" height="12" fill="#ff0f0f">
    <animate attributeName="opacity" values="1;0" keyTimes="0;1" dur="1s" begin="-0.2638888888888889s" repeatCount="indefinite"></animate>
  </rect>
</g><g transform="rotate(265 50 50)">
  <rect x="37.5" y="19" rx="9" ry="6" width="25" height="12" fill="#ff0f0f">
    <animate attributeName="opacity" values="1;0" keyTimes="0;1" dur="1s" begin="-0.25s" repeatCount="indefinite"></animate>
  </rect>
</g><g transform="rotate(270 50 50)">
  <rect x="37.5" y="19" rx="9" ry="6" width="25" height="12" fill="#ff0f0f">
    <animate attributeName="opacity" values="1;0" keyTimes="0;1" dur="1s" begin="-0.2361111111111111s" repeatCount="indefinite"></animate>
  </rect>
</g><g transform="rotate(275 50 50)">
  <rect x="37.5" y="19" rx="9" ry="6" width="25" height="12" fill="#ff0f0f">
    <animate attributeName="opacity" values="1;0" keyTimes="0;1" dur="1s" begin="-0.2222222222222222s" repeatCount="indefinite"></animate>
  </rect>
</g><g transform="rotate(280 50 50)">
  <rect x="37.5" y="19" rx="9" ry="6" width="25" height="12" fill="#ff0f0f">
    <animate attributeName="opacity" values="1;0" keyTimes="0;1" dur="1s" begin="-0.20833333333333334s" repeatCount="indefinite"></animate>
  </rect>
</g><g transform="rotate(285 50 50)">
  <rect x="37.5" y="19" rx="9" ry="6" width="25" height="12" fill="#ff0f0f">
    <animate attributeName="opacity" values="1;0" keyTimes="0;1" dur="1s" begin="-0.19444444444444445s" repeatCount="indefinite"></animate>
  </rect>
</g><g transform="rotate(290 50 50)">
  <rect x="37.5" y="19" rx="9" ry="6" width="25" height="12" fill="#ff0f0f">
    <animate attributeName="opacity" values="1;0" keyTimes="0;1" dur="1s" begin="-0.18055555555555555s" repeatCount="indefinite"></animate>
  </rect>
</g><g transform="rotate(295 50 50)">
  <rect x="37.5" y="19" rx="9" ry="6" width="25" height="12" fill="#ff0f0f">
    <animate attributeName="opacity" values="1;0" keyTimes="0;1" dur="1s" begin="-0.16666666666666666s" repeatCount="indefinite"></animate>
  </rect>
</g><g transform="rotate(300 50 50)">
  <rect x="37.5" y="19" rx="9" ry="6" width="25" height="12" fill="#ff0f0f">
    <animate attributeName="opacity" values="1;0" keyTimes="0;1" dur="1s" begin="-0.1527777777777778s" repeatCount="indefinite"></animate>
  </rect>
</g><g transform="rotate(305 50 50)">
  <rect x="37.5" y="19" rx="9" ry="6" width="25" height="12" fill="#ff0f0f">
    <animate attributeName="opacity" values="1;0" keyTimes="0;1" dur="1s" begin="-0.1388888888888889s" repeatCount="indefinite"></animate>
  </rect>
</g><g transform="rotate(310 50 50)">
  <rect x="37.5" y="19" rx="9" ry="6" width="25" height="12" fill="#ff0f0f">
    <animate attributeName="opacity" values="1;0" keyTimes="0;1" dur="1s" begin="-0.125s" repeatCount="indefinite"></animate>
  </rect>
</g><g transform="rotate(315 50 50)">
  <rect x="37.5" y="19" rx="9" ry="6" width="25" height="12" fill="#ff0f0f">
    <animate attributeName="opacity" values="1;0" keyTimes="0;1" dur="1s" begin="-0.1111111111111111s" repeatCount="indefinite"></animate>
  </rect>
</g><g transform="rotate(320 50 50)">
  <rect x="37.5" y="19" rx="9" ry="6" width="25" height="12" fill="#ff0f0f">
    <animate attributeName="opacity" values="1;0" keyTimes="0;1" dur="1s" begin="-0.09722222222222222s" repeatCount="indefinite"></animate>
  </rect>
</g><g transform="rotate(325 50 50)">
  <rect x="37.5" y="19" rx="9" ry="6" width="25" height="12" fill="#ff0f0f">
    <animate attributeName="opacity" values="1;0" keyTimes="0;1" dur="1s" begin="-0.08333333333333333s" repeatCount="indefinite"></animate>
  </rect>
</g><g transform="rotate(330 50 50)">
  <rect x="37.5" y="19" rx="9" ry="6" width="25" height="12" fill="#ff0f0f">
    <animate attributeName="opacity" values="1;0" keyTimes="0;1" dur="1s" begin="-0.06944444444444445s" repeatCount="indefinite"></animate>
  </rect>
</g><g transform="rotate(335 50 50)">
  <rect x="37.5" y="19" rx="9" ry="6" width="25" height="12" fill="#ff0f0f">
    <animate attributeName="opacity" values="1;0" keyTimes="0;1" dur="1s" begin="-0.05555555555555555s" repeatCount="indefinite"></animate>
  </rect>
</g><g transform="rotate(340 50 50)">
  <rect x="37.5" y="19" rx="9" ry="6" width="25" height="12" fill="#ff0f0f">
    <animate attributeName="opacity" values="1;0" keyTimes="0;1" dur="1s" begin="-0.041666666666666664s" repeatCount="indefinite"></animate>
  </rect>
</g><g transform="rotate(345 50 50)">
  <rect x="37.5" y="19" rx="9" ry="6" width="25" height="12" fill="#ff0f0f">
    <animate attributeName="opacity" values="1;0" keyTimes="0;1" dur="1s" begin="-0.027777777777777776s" repeatCount="indefinite"></animate>
  </rect>
</g><g transform="rotate(350 50 50)">
  <rect x="37.5" y="19" rx="9" ry="6" width="25" height="12" fill="#ff0f0f">
    <animate attributeName="opacity" values="1;0" keyTimes="0;1" dur="1s" begin="-0.013888888888888888s" repeatCount="indefinite"></animate>
  </rect>
</g><g transform="rotate(355 50 50)">
  <rect x="37.5" y="19" rx="9" ry="6" width="25" height="12" fill="#ff0f0f">
    <animate attributeName="opacity" values="1;0" keyTimes="0;1" dur="1s" begin="0s" repeatCount="indefinite"></animate>
  </rect>
</g>
<!-- [ldio] generated by https://loading.io/ --></svg>